# xmcd
#
# Track frame offsets:
#	150
#	17642
#	31088
#	45765
#	61648
#	74229
#	89415
#	101133
#	132063
#	147327
#	164004
#	179097
#	211030
#	236721
#	258326
#	276295
#	290979
#	308606
#
# Disc length: 4371 seconds
#
# Revision: 1
# Processed by: cddbd v1.5.2PL0 Copyright (c) Steve Scherf et al.
# Submitted via: EZCDAudioConverter 2.1.7.1
#
DISCID=0b111112
DTITLE=V/A - Welcome To Zamrock 2/2
DYEAR=1900
DGENRE=
TTITLE0=Crossbones - Really
TTITLE1=Amanaz - History Of Man
TTITLE2=Witch - Strange Dream
TTITLE3=Rikki Ililonga - Stop Dreaming Mr. D
TTITLE4=Five Revolutions - Poor Man
TTITLE5=Keith Mlevhu - Love And Freedom
TTITLE6=Born Free - Mad Man
TTITLE7=Dr. Footswitch - Otenta
TTITLE8=Tinkles - Mpundu
TTITLE9=Salty Dog - See The Storm
TTITLE10=Fire Balls - Umwana Wakusanga Mung'anda
TTITLE11=Peace - Umbwalwa Ne Chamba
TTITLE12=Oscillations - Request To God
TTITLE13=Musi-O-Tunya - Katonga
TTITLE14=Ngozi Family - Hold On
TTITLE15=Chrissy Zebby Tembo - I'm Not Made Of Iron
TTITLE16=Jesper Siliya Lungu - Hot Do
TTITLE17=Mike Nyoni - S.M.
EXTD=
EXTT0=
EXTT1=
EXTT2=
EXTT3=
EXTT4=
EXTT5=
EXTT6=
EXTT7=
EXTT8=
EXTT9=
EXTT10=
EXTT11=
EXTT12=
EXTT13=
EXTT14=
EXTT15=
EXTT16=
EXTT17=
PLAYORDER=
